<svg width="229" height="122" viewBox="0 0 229 122" fill="none" xmlns="http://www.w3.org/2000/svg">
<path d="M40.971 121.482C30.7328 121.482 22.1613 119.22 15.2564 114.696C8.47064 110.172 3.70868 103.208 0.970553 93.8031L9.54208 89.5174C11.2088 97.1365 14.6612 103.029 19.8993 107.196C25.2565 111.244 32.3399 113.268 41.1496 113.268C47.3401 113.268 52.6378 112.077 57.0426 109.696C61.5665 107.196 65.0784 103.744 67.5784 99.3389C70.1975 94.8151 71.507 89.6364 71.507 83.803C71.507 77.6125 70.3166 72.3743 67.9356 68.0886C65.5546 63.6838 62.1617 60.2909 57.7569 57.9099C53.4711 55.5289 48.2925 54.3384 42.221 54.3384C37.221 54.3384 32.8161 54.9337 29.0066 56.1242C25.197 57.1956 21.8636 58.7432 19.0065 60.7671C16.2683 62.6719 13.9469 64.9338 12.0421 67.5529L4.36345 66.3028L10.4349 1.83785H75.7928V10.0522H18.1136L13.4707 55.767L13.1135 58.0885H13.2921C16.1493 54.7551 20.0184 51.9574 24.8994 49.6955C29.7804 47.3145 36.0305 46.1241 43.6496 46.1241C51.1497 46.1241 57.6378 47.6717 63.1141 50.767C68.5903 53.8622 72.8761 58.2075 75.9714 63.8028C79.1857 69.3981 80.7929 75.9458 80.7929 83.4459C80.7929 89.1602 79.7809 94.3984 77.7571 99.1604C75.8523 103.803 73.1142 107.791 69.5427 111.125C66.0903 114.458 61.9236 117.018 57.0426 118.803C52.1616 120.589 46.8044 121.482 40.971 121.482ZM119.824 119.696L197.146 1.83785H205.896L128.574 119.696H119.824ZM124.467 0.944988C130.3 0.944988 135.181 2.37357 139.11 5.23075C143.038 7.96887 146.014 11.7189 148.038 16.4809C150.062 21.1238 151.074 26.3619 151.074 32.1953C151.074 38.0287 150.062 43.3264 148.038 48.0884C146.014 52.7313 143.038 56.4218 139.11 59.1599C135.181 61.898 130.3 63.2671 124.467 63.2671C118.752 63.2671 113.871 61.898 109.824 59.1599C105.895 56.4218 102.919 52.7313 100.895 48.0884C98.8711 43.3264 97.8592 38.0287 97.8592 32.1953C97.8592 26.3619 98.8116 21.1238 100.716 16.4809C102.74 11.7189 105.776 7.96887 109.824 5.23075C113.871 2.37357 118.752 0.944988 124.467 0.944988ZM124.467 8.08793C120.3 8.08793 116.847 9.15936 114.109 11.3022C111.371 13.3261 109.288 16.1832 107.859 19.8738C106.55 23.4452 105.895 27.5524 105.895 32.1953C105.895 36.8382 106.55 41.0049 107.859 44.6955C109.288 48.2669 111.371 51.0646 114.109 53.0884C116.847 55.1122 120.3 56.1242 124.467 56.1242C128.752 56.1242 132.264 55.1122 135.002 53.0884C137.741 51.0646 139.764 48.2669 141.074 44.6955C142.383 41.0049 143.038 36.8382 143.038 32.1953C143.038 27.5524 142.324 23.4452 140.895 19.8738C139.586 16.1832 137.562 13.3261 134.824 11.3022C132.205 9.15936 128.752 8.08793 124.467 8.08793ZM201.432 58.267C207.265 58.267 212.146 59.6361 216.075 62.3742C220.003 65.1124 222.98 68.8624 225.003 73.6244C227.027 78.2673 228.039 83.5649 228.039 89.5174C228.039 95.3508 227.027 100.648 225.003 105.41C222.98 110.053 220.003 113.744 216.075 116.482C212.146 119.22 207.265 120.589 201.432 120.589C195.598 120.589 190.658 119.22 186.61 116.482C182.682 113.744 179.705 110.053 177.681 105.41C175.658 100.648 174.646 95.3508 174.646 89.5174C174.646 83.5649 175.658 78.2673 177.681 73.6244C179.705 68.8624 182.682 65.1124 186.61 62.3742C190.658 59.6361 195.598 58.267 201.432 58.267ZM201.432 65.41C197.265 65.41 193.753 66.4814 190.896 68.6243C188.158 70.6481 186.074 73.5053 184.646 77.1958C183.336 80.7673 182.682 84.8745 182.682 89.5174C182.682 94.0412 183.336 98.1484 184.646 101.839C186.074 105.41 188.158 108.268 190.896 110.41C193.753 112.434 197.265 113.446 201.432 113.446C205.717 113.446 209.17 112.434 211.789 110.41C214.527 108.268 216.551 105.41 217.86 101.839C219.289 98.1484 220.003 94.0412 220.003 89.5174C220.003 84.8745 219.289 80.7673 217.86 77.1958C216.551 73.5053 214.527 70.6481 211.789 68.6243C209.17 66.4814 205.717 65.41 201.432 65.41Z" fill="#434343"/>
</svg>
